<svg width="12" height="15" viewBox="0 0 12 15" fill="none" xmlns="http://www.w3.org/2000/svg">
<path d="M6.40332 7C9.49423 7.00012 11.9999 9.50577 12 12.5967C12 13.1178 11.6233 13.5627 11.1094 13.6484L9.47559 13.9209C7.17441 14.3044 4.82559 14.3044 2.52441 13.9209L0.890625 13.6484C0.376673 13.5627 0 13.1178 0 12.5967C0.000118134 9.50577 2.50577 7.00012 5.59668 7H6.40332ZM6 0C7.65685 0 9 1.34315 9 3C9 4.65685 7.65685 6 6 6C4.34315 6 3 4.65685 3 3C3 1.34315 4.34315 0 6 0Z" fill="#4CAF00"/>
</svg>
